<svg width="24" height="24" viewBox="0 0 24 24" fill="none" xmlns="http://www.w3.org/2000/svg">
<path d="M15.75 0.75H8.25C6.59315 0.75 5.25 2.09315 5.25 3.75V20.25C5.25 21.9069 6.59315 23.25 8.25 23.25H15.75C17.4069 23.25 18.75 21.9069 18.75 20.25V3.75C18.75 2.09315 17.4069 0.75 15.75 0.75Z" stroke="black" stroke-width="1.5" stroke-linecap="round" stroke-linejoin="round"/>
<path d="M10 21H14" stroke="black" stroke-width="1.5" stroke-linecap="round"/>
<path d="M11.875 3C11.6679 3 11.5 3.16789 11.5 3.375C11.5 3.58211 11.6679 3.75 11.875 3.75C12.0821 3.75 12.25 3.58211 12.25 3.375C12.25 3.16789 12.0821 3 11.875 3Z" stroke="black" stroke-width="1.5" stroke-linecap="round" stroke-linejoin="round"/>
</svg>
