<svg width="24" height="24" viewBox="0 0 24 24" fill="none" xmlns="http://www.w3.org/2000/svg">
<g clip-path="url(#clip0_2_127)">
<path fill-rule="evenodd" clip-rule="evenodd" d="M7.5 9C9.77817 9 11.625 7.15317 11.625 4.875C11.625 2.59683 9.77817 0.75 7.5 0.75C5.22183 0.75 3.375 2.59683 3.375 4.875C3.375 7.15317 5.22183 9 7.5 9Z" stroke="black" stroke-width="1.5" stroke-linecap="round" stroke-linejoin="round"/>
<path d="M12.21 12.4251C10.2696 10.5256 7.3791 9.97534 4.87645 11.029C2.37381 12.0827 0.747385 14.5347 0.750003 17.2501" stroke="black" stroke-width="1.5" stroke-linecap="round" stroke-linejoin="round"/>
<path d="M21.75 15.75H15.75C14.9216 15.75 14.25 16.4216 14.25 17.25V21.75C14.25 22.5784 14.9216 23.25 15.75 23.25H21.75C22.5784 23.25 23.25 22.5784 23.25 21.75V17.25C23.25 16.4216 22.5784 15.75 21.75 15.75Z" stroke="black" stroke-width="1.5" stroke-linecap="round" stroke-linejoin="round"/>
<path fill-rule="evenodd" clip-rule="evenodd" d="M18.75 11.25C17.0931 11.25 15.75 12.5931 15.75 14.25V15.75H21.75V14.25C21.75 12.5931 20.4069 11.25 18.75 11.25Z" stroke="black" stroke-width="1.5" stroke-linecap="round" stroke-linejoin="round"/>
<path d="M18.75 19.1543C18.5429 19.1543 18.375 19.3221 18.375 19.5293C18.375 19.7364 18.5429 19.9043 18.75 19.9043C18.9571 19.9043 19.125 19.7364 19.125 19.5293C19.1253 19.4297 19.0858 19.3342 19.0155 19.2638C18.9451 19.1934 18.8495 19.154 18.75 19.1543Z" stroke="black" stroke-width="1.5" stroke-linecap="round" stroke-linejoin="round"/>
</g>
<defs>
<clipPath id="clip0_2_127">
<rect width="24" height="24" fill="white"/>
</clipPath>
</defs>
</svg>
