<svg width="24" height="24" viewBox="0 0 24 24" fill="none" xmlns="http://www.w3.org/2000/svg">
<g clip-path="url(#clip0_2_102)">
<path d="M9 13.187H2.25C1.42157 13.187 0.75 12.5154 0.75 11.687V2.68701C0.75 1.85858 1.42157 1.18701 2.25 1.18701H14.25C15.0784 1.18701 15.75 1.85858 15.75 2.68701V9.43701" stroke="black" stroke-width="1.5" stroke-linecap="round" stroke-linejoin="round"/>
<path fill-rule="evenodd" clip-rule="evenodd" d="M19.579 10.5999L22.165 11.8929C22.3975 12.009 22.6735 11.9964 22.8945 11.8597C23.1155 11.7231 23.25 11.4817 23.25 11.2219V3.14988C23.25 2.89003 23.1155 2.6487 22.8945 2.51203C22.6735 2.37536 22.3975 2.36281 22.165 2.47888L19.579 3.77188C19.0708 4.02608 18.7498 4.54563 18.75 5.11388V9.25988C18.7506 9.82741 19.0714 10.346 19.579 10.5999Z" stroke="black" stroke-width="1.5" stroke-linecap="round" stroke-linejoin="round"/>
<path fill-rule="evenodd" clip-rule="evenodd" d="M19.928 17.794L13.886 14.168C13.6543 14.0289 13.3657 14.0252 13.1306 14.1583C12.8954 14.2914 12.75 14.5408 12.75 14.811V22.062C12.75 22.3322 12.8954 22.5815 13.1306 22.7146C13.3657 22.8478 13.6543 22.8441 13.886 22.705L19.928 19.08C20.1543 18.9448 20.2929 18.7006 20.2929 18.437C20.2929 18.1734 20.1543 17.9292 19.928 17.794Z" stroke="black" stroke-width="1.5" stroke-linecap="round" stroke-linejoin="round"/>
</g>
<defs>
<clipPath id="clip0_2_102">
<rect width="24" height="24" fill="white"/>
</clipPath>
</defs>
</svg>
